<?xml version="1.0" standalone="no"?>
<!DOCTYPE svg PUBLIC "-//W3C//DTD SVG 20010904//EN"
 "http://www.w3.org/TR/2001/REC-SVG-20010904/DTD/svg10.dtd">
<svg version="1.0" xmlns="http://www.w3.org/2000/svg"
 width="70.000000pt" height="70.000000pt" viewBox="0 0 70.000000 70.000000"
 preserveAspectRatio="xMidYMid meet">
<metadata>
Created by potrace 1.14, written by Peter Selinger 2001-2017
</metadata>
<g transform="translate(0.000000,70.000000) scale(0.100000,-0.100000)"
fill="#000000" stroke="none">
<path d="M182 564 c-58 -28 -112 -96 -112 -144 0 -14 -9 -32 -20 -40 -15 -11
-20 -26 -20 -63 0 -50 13 -72 45 -79 11 -2 25 -14 32 -27 18 -36 69 -81 92
-81 12 0 21 -4 21 -10 0 -13 273 -14 298 -1 9 5 29 14 43 21 25 11 59 66 59
95 0 7 9 17 20 20 11 3 20 9 21 13 9 76 8 83 -16 104 -19 16 -25 31 -25 63 0
43 -18 77 -59 110 -51 41 -70 45 -200 44 -113 0 -132 -3 -179 -25z"/>
</g>
</svg>
